<?xml version="1.0" encoding="UTF-8" standalone="no"?>
<svg
   xmlns:dc="http://purl.org/dc/elements/1.1/"
   xmlns:cc="http://creativecommons.org/ns#"
   xmlns:rdf="http://www.w3.org/1999/02/22-rdf-syntax-ns#"
   xmlns:svg="http://www.w3.org/2000/svg"
   xmlns="http://www.w3.org/2000/svg"
   xmlns:sodipodi="http://sodipodi.sourceforge.net/DTD/sodipodi-0.dtd"
   xmlns:inkscape="http://www.inkscape.org/namespaces/inkscape"
   id="svg983"
   preserveAspectRatio="xMidYMid meet"
   version="1.1"
   viewBox="0 0 110.3 221.38334"
   height="221.38333mm"
   width="110.3mm"
   sodipodi:docname="box.svg"
   inkscape:version="0.92.3 (2405546, 2018-03-11)">
  <sodipodi:namedview
     pagecolor="#ffffff"
     bordercolor="#666666"
     borderopacity="1"
     objecttolerance="10"
     gridtolerance="10"
     guidetolerance="10"
     inkscape:pageopacity="0"
     inkscape:pageshadow="2"
     inkscape:window-width="1920"
     inkscape:window-height="1052"
     id="namedview20"
     showgrid="false"
     inkscape:zoom="1.8443764"
     inkscape:cx="-24.191011"
     inkscape:cy="524.15843"
     inkscape:window-x="1920"
     inkscape:window-y="0"
     inkscape:window-maximized="1"
     inkscape:current-layer="svg983" />
  <metadata
     id="metadata989">
    <rdf:RDF>
      <cc:Work
         rdf:about="">
        <dc:format>image/svg+xml</dc:format>
        <dc:type
           rdf:resource="http://purl.org/dc/dcmitype/StillImage" />
        <dc:title />
      </cc:Work>
    </rdf:RDF>
  </metadata>
  <defs
     id="defs987" />
  <path
     d="m 28.25,110.191 v -2.941 h 17.8 v 2.941 l 0.059,0.059 h 18.082 l 0.059,-0.059 v -2.941 h 17.8 v 2.941 l 0.059,0.059 h 28.082 l 0.059,-0.059 V 82.109 l -0.059,-0.059 h -2.941 v -17.8 h 2.941 l 0.059,-0.059 V 46.109 l -0.059,-0.059 h -2.941 v -17.8 h 2.941 l 0.059,-0.059 V 0.109 L 110.191,0.05 H 82.109 L 82.05,0.109 V 3.05 H 64.25 V 0.109 L 64.191,0.05 H 46.109 L 46.05,0.109 V 3.05 H 28.25 V 0.109 L 28.191,0.05 H 0.109 L 0.05,0.109 V 28.191 L 0.109,28.25 H 3.05 v 17.8 H 0.109 L 0.05,46.109 V 64.191 L 0.109,64.25 H 3.05 v 17.8 H 0.109 L 0.05,82.109 v 28.082 l 0.059,0.059 h 28.082 z"
     id="back_outsideCutPath"
     style="font-size:12px;vector-effect:non-scaling-stroke;fill:none;fill-rule:evenodd;stroke:#ff0000;stroke-width:0.1;stroke-linecap:round" />
  <path
     d="m 28.25,221.27433 v -2.941 h 17.8 v 2.941 l 0.059,0.059 h 18.082 l 0.059,-0.059 v -2.941 h 17.8 v 2.941 l 0.059,0.059 h 28.082 l 0.059,-0.059 v -28.082 l -0.059,-0.059 h -2.941 v -17.8 h 2.941 l 0.059,-0.059 v -18.082 l -0.059,-0.059 h -2.941 v -17.8 h 2.941 l 0.059,-0.059 v -28.082 l -0.059,-0.059 H 82.109 l -0.059,0.059 v 2.941 h -17.8 v -2.941 l -0.059,-0.059 H 46.109 l -0.059,0.059 v 2.941 h -17.8 v -2.941 l -0.059,-0.059 H 0.109 l -0.059,0.059 v 28.082 l 0.059,0.059 H 3.05 v 17.8 H 0.109 l -0.059,0.059 v 18.082 l 0.059,0.059 H 3.05 v 17.8 H 0.109 l -0.059,0.059 v 28.082 l 0.059,0.059 h 28.082 z"
     id="front_outsideCutPath"
     style="font-size:12px;vector-effect:non-scaling-stroke;fill:none;fill-rule:evenodd;stroke:#ff0000;stroke-width:0.1;stroke-linecap:round" />
  <ellipse
     ry="24.933926"
     rx="24.933924"
     cy="183.2399"
     cx="55.149998"
     id="path5237"
     style="opacity:1;fill:none;fill-opacity:0.5098038;stroke:#0000ff;stroke-width:0.13214979;stroke-miterlimit:4;stroke-dasharray:none;stroke-dashoffset:0;stroke-opacity:1" />
  <rect
     y="129.6196"
     x="42.779278"
     height="18.006447"
     width="24.741447"
     id="rect5239"
     style="opacity:1;fill:none;fill-opacity:1;stroke:#ff0000;stroke-width:0.25855294;stroke-miterlimit:4;stroke-dasharray:none;stroke-dashoffset:0;stroke-opacity:1" />
  <g
     id="text5255"
     style="font-style:normal;font-variant:normal;font-weight:normal;font-stretch:normal;font-size:7.76111126px;line-height:1.25;font-family:'High Score';-inkscape-font-specification:'High Score';letter-spacing:0px;word-spacing:0px;fill:none;fill-opacity:1;stroke:#0000ff;stroke-width:0.26458332;stroke-opacity:1"
     aria-label="CO2 Ampel">
    <path
       id="path8144"
       style="fill:none;fill-opacity:1;stroke:#0000ff;stroke-width:0.26458332;stroke-opacity:1"
       d="m 37.808767,122.69568 v -0.24253 h 0.242535 v 0.24253 z m 0.242535,-0.24253 v -0.24254 h 0.242534 v 0.24254 z m 0.242534,-0.24254 v -0.7276 H 35.38342 v -2.66788 h 2.425347 v 0.24253 h -2.182813 v 2.18281 h 2.910417 v 0.97014 z m -0.485069,-3.39548 v -0.24254 h 0.242535 v 0.24254 z m 0.242535,-0.24254 v -0.24253 h 0.242534 v 0.24253 z m -4.123091,4.36563 v -4.8507 h 0.242535 v 4.60816 h 3.638021 v 0.24254 z m 0.242535,-4.8507 v -0.24253 h 0.242535 v 0.24253 z m 0.242535,-0.24253 v -0.24254 h 0.242534 v 0.24254 z m 3.880555,0.48507 v -0.72761 h -3.638021 v -0.24253 h 3.880556 v 0.97014 z" />
    <path
       id="path8146"
       style="fill:none;fill-opacity:1;stroke:#0000ff;stroke-width:0.26458332;stroke-opacity:1"
       d="m 41.689323,122.69568 v -0.24253 h 0.242534 v 0.24253 z m 0.242534,-0.24253 v -0.24254 h 0.242535 v 0.24254 z m -2.182812,0.48507 v -0.97014 h 0.242535 v 0.7276 h 1.697743 v 0.24254 z m 2.425347,-0.72761 v -0.24253 h 0.242535 v 0.24253 z m -2.182812,-0.24253 v -0.24254 h 0.242534 v 0.24254 z m 2.425347,0 v -0.24254 h 0.242534 v 0.24254 z m -2.667882,-0.24254 v -0.24253 h 0.242535 v 0.24253 z m 0.485069,0 v -0.24253 h 0.242535 v 0.24253 z m 2.425347,0 v -0.24253 h 0.242535 v 0.24253 z m -2.667881,-0.24253 v -0.24254 h 0.242534 v 0.24254 z m 2.910416,0 v -0.24254 h 0.242535 v 0.24254 z m -4.12309,0.48507 v -2.91042 h 0.242535 v 2.66788 h 0.727604 v 0.24254 z m 1.697743,-0.48507 v -0.24254 h 1.212674 v -2.18281 h 0.242534 v 2.42535 z m -1.455208,-2.42535 v -0.24253 h 0.242534 v 0.24253 z m 1.212673,2.18281 v -2.42534 h 1.455209 v 0.24253 h -1.212674 v 2.18281 z m 1.697743,-2.18281 v -0.24253 h 0.242535 v 0.24253 z m -2.667882,-0.24253 v -0.24254 h 0.242535 v 0.24254 z m 2.425348,0 v -0.24254 h 0.242534 v 0.24254 z m 0.485069,0 v -0.24254 h 0.242535 v 0.24254 z m -2.667882,-0.24254 v -0.24253 h 0.242535 v 0.24253 z m 2.425347,0 v -0.24253 h 0.242535 v 0.24253 z m 1.212674,2.66788 v -2.66788 h -0.727604 v -0.24253 h 0.970139 v 2.91041 z m -3.395486,-2.91041 v -0.24254 h 0.242535 v 0.24254 z m 0.242535,-0.24254 v -0.24253 h 0.242534 v 0.24253 z m 0.242534,-0.24253 v -0.24254 h 0.242535 v 0.24254 z m 1.940278,0.48507 v -0.72761 h -1.697743 v -0.24253 h 1.940278 v 0.97014 z" />
    <path
       id="path8148"
       style="fill:none;fill-opacity:1;stroke:#0000ff;stroke-width:0.26458332;stroke-opacity:1"
       d="m 47.510156,122.69568 v -0.24253 h 0.242535 v 0.24253 z m 0.242535,-0.24253 v -0.24254 h 0.242535 v 0.24254 z m -4.12309,0.48507 v -0.97014 h 0.242534 v 0.7276 h 3.638021 v 0.24254 z m 0.242534,-0.97014 v -0.24254 h 0.242535 v 0.24254 z m 0.242535,-0.24254 v -0.24253 h 0.242535 v 0.24253 z m 0.242535,-0.24253 v -0.24254 h 0.242534 v 0.24254 z m 3.638021,0.7276 v -0.7276 h -1.697743 v -0.24254 h 1.940277 v 0.97014 z m -3.395487,-0.97014 v -0.24253 h 0.242535 v 0.24253 z m 1.455209,0 v -0.24253 h 0.242535 v 0.24253 z m -1.212674,-0.24253 v -0.24254 h 0.242535 v 0.24254 z m 1.455209,0 v -0.24254 h 0.242534 v 0.24254 z m -1.212674,-0.24254 v -0.24253 h 0.242535 v 0.24253 z m 1.455208,0 v -0.24253 h 0.242535 v 0.24253 z m -1.212673,-0.24253 v -0.24253 h 0.242534 v 0.24253 z m 1.455208,0 v -0.24253 h 0.242535 v 0.24253 z m -1.212674,-0.24253 v -0.24254 h 0.242535 v 0.24254 z m 1.455209,0 v -0.24254 h 0.242534 v 0.24254 z m -1.212674,-0.24254 v -0.24253 h 0.242535 v 0.24253 z m 1.455208,0 v -0.24253 h 0.242535 v 0.24253 z m -2.667882,-0.24253 v -0.24254 h 0.242535 v 0.24254 z m 1.455209,0 v -0.24254 h 0.242535 v 0.24254 z m 1.455208,0 v -0.24254 h 0.242535 v 0.24254 z m -2.667882,-0.24254 v -0.24253 h 0.242535 v 0.24253 z m 1.455209,0 v -0.24253 h 0.242534 v 0.24253 z m 1.455208,0 v -0.24253 h 0.242535 v 0.24253 z m -4.12309,0.48507 v -0.97014 h 0.242534 v 0.72761 h 0.727604 v 0.24253 z m 1.455208,-0.7276 v -0.24254 h 0.242535 v 0.24254 z m 1.455208,0 v -0.24254 h 0.242535 v 0.24254 z m -2.667882,-0.24254 v -0.24253 h 0.242535 v 0.24253 z m 1.455209,0 v -0.24253 h 1.212673 v 0.24253 z m 1.455208,0 v -0.24253 h 0.242535 v 0.24253 z m -2.667882,-0.24253 v -0.24254 h 0.242535 v 0.24254 z m 2.425347,0 v -0.24254 h 0.242535 v 0.24254 z m 0.48507,0 v -0.24254 h 0.242534 v 0.24254 z m -2.667882,-0.24254 v -0.24253 h 0.242534 v 0.24253 z m 2.425347,0 v -0.24253 h 0.242535 v 0.24253 z m 1.212674,0.72761 v -0.72761 h -0.727605 v -0.24253 h 0.970139 v 0.97014 z m -3.395487,-0.97014 v -0.24254 h 0.242535 v 0.24254 z m 0.242535,-0.24254 v -0.24253 h 0.242535 v 0.24253 z m 0.242535,-0.24253 v -0.24254 h 0.242535 v 0.24254 z m 1.940278,0.48507 v -0.72761 h -1.697743 v -0.24253 h 1.940277 v 0.97014 z" />
    <path
       id="path8150"
       style="fill:none;fill-opacity:1;stroke:#0000ff;stroke-width:0.26458332;stroke-opacity:1"
       d="m 52.360852,122.69568 v -0.24253 h 0.242534 v 0.24253 z m 2.910416,0 v -0.24253 h 0.242535 v 0.24253 z m -2.667882,-0.24253 v -0.24254 h 0.242535 v 0.24254 z m 2.910417,0 v -0.24254 h 0.242535 v 0.24254 z m -1.212674,0.48507 v -1.94028 h -1.212673 v 1.21267 h -0.242535 v -1.45521 h 1.697743 v 1.94028 h 0.727604 v 0.24254 z m -2.910416,0 v -3.88056 h 0.242534 v 3.63802 h 0.727605 v 0.24254 z m 2.910416,-3.63802 v -0.24254 h 0.242535 v 0.24254 z m -2.667882,-0.24254 v -0.24253 h 0.242535 v 0.24253 z m 1.212674,0.48507 v -0.7276 h 1.455208 v 0.24253 h -1.212673 v 0.24254 h 1.212673 v 0.24253 z m 1.697743,-0.48507 v -0.24253 h 0.242535 v 0.24253 z m -2.667882,-0.24253 v -0.24254 h 0.242535 v 0.24254 z m 2.425347,0 v -0.24254 h 0.242535 v 0.24254 z m 0.48507,0 v -0.24254 h 0.242535 v 0.24254 z m -2.667882,-0.24254 v -0.24253 h 0.242535 v 0.24253 z m 2.425347,0 v -0.24253 h 0.242535 v 0.24253 z m 1.212674,3.63802 v -3.63802 h -0.727604 v -0.24253 h 0.970139 v 3.88055 z m -3.395486,-3.88055 v -0.24254 h 0.242534 v 0.24254 z m 0.242534,-0.24254 v -0.24253 h 0.242535 v 0.24253 z m 0.242535,-0.24253 v -0.24254 h 0.242535 v 0.24254 z m 1.940278,0.48507 v -0.72761 h -1.697743 v -0.24253 h 1.940278 v 0.97014 z" />
    <path
       id="path8152"
       style="fill:none;fill-opacity:1;stroke:#0000ff;stroke-width:0.26458332;stroke-opacity:1"
       d="m 56.241405,122.93822 v -4.8507 h 0.242535 v -0.24253 h 0.242535 v -0.24254 h 0.242535 v -0.24253 h 1.940277 v 0.97014 h -0.242534 v 0.24253 h -0.242535 v 0.24254 h -0.242535 v 0.24253 h -0.242534 v 3.15295 h -0.242535 v 0.24254 h -0.242535 v 0.24253 h -0.242535 v 0.24254 z m 3.880556,0 v -3.88056 h -0.242535 v 1.21268 h -0.242534 v 0.24253 h -0.242535 v 0.24253 h -0.242535 v 0.24254 h -0.970139 v -1.94028 h 0.242535 v -0.24253 h 0.242535 v -0.24254 h 0.242534 v -0.24253 h 0.242535 v -0.24254 h 0.242535 v -0.24253 h 0.242535 v -0.24254 h 0.242534 v -0.24253 h 1.940278 v 4.85069 h -0.242535 v 0.24254 h -0.242534 v 0.24253 H 61.0921 v 0.24254 z" />
    <path
       id="path8154"
       style="fill:none;fill-opacity:1;stroke:#0000ff;stroke-width:0.26458332;stroke-opacity:1"
       d="m 64.972657,119.3002 v -0.24254 h -1.212673 v 0.24254 z m -2.910416,3.63802 v -4.8507 h 0.242534 v -0.24253 h 0.242535 v -0.24254 h 0.242535 v -0.24253 H 66.6704 v 2.91042 h -0.242534 v 0.24253 h -0.242535 v 0.24253 h -0.242535 v 0.24254 h -2.182812 v 1.21267 h -0.242535 v 0.24254 h -0.242535 v 0.24253 H 63.03238 v 0.24254 z" />
    <path
       id="path8156"
       style="fill:none;fill-opacity:1;stroke:#0000ff;stroke-width:0.26458332;stroke-opacity:1"
       d="m 66.912933,122.93822 v -4.8507 h 0.242535 v -0.24253 h 0.242535 v -0.24254 h 0.242535 v -0.24253 h 3.880555 v 0.97014 h -0.242535 v 0.24253 h -0.242534 v 0.24254 h -0.242535 v 0.24253 h -2.182813 v 0.24254 h 1.940278 v 0.97014 H 70.30842 v 0.24253 h -0.242535 v 0.24253 H 69.82335 v 0.24254 h -1.212674 v 0.24253 h 2.910417 v 0.97014 h -0.242535 v 0.24254 h -0.242534 v 0.24253 h -0.242535 v 0.24254 z" />
    <path
       id="path8158"
       style="fill:none;fill-opacity:1;stroke:#0000ff;stroke-width:0.26458332;stroke-opacity:1"
       d="m 71.76363,122.93822 v -4.8507 h 0.242535 v -0.24253 h 0.242534 v -0.24254 h 0.242535 v -0.24253 h 0.970139 v 3.88055 h 2.910417 v 0.97014 h -0.242535 v 0.24254 H 75.88672 v 0.24253 h -0.242534 v 0.24254 z" />
  </g>
  <rect
     style="opacity:1;fill:none;fill-opacity:1;fill-rule:evenodd;stroke:#ff0000;stroke-width:0.24268976;stroke-linecap:round;stroke-linejoin:round;stroke-miterlimit:4;stroke-dasharray:none;stroke-opacity:1"
     id="rect827"
     width="8.7573099"
     height="8.7573099"
     x="8.0234766"
     y="88.986549" />
  <circle
     style="opacity:1;fill:none;fill-opacity:1;fill-rule:evenodd;stroke:#ff0000;stroke-width:0.50877088;stroke-linecap:round;stroke-linejoin:round;stroke-miterlimit:4;stroke-dasharray:none;stroke-opacity:1"
     id="path838"
     cx="32.648277"
     cy="183.2399"
     r="2.2456145" />
</svg>
