<?xml version="1.0" encoding="UTF-8" standalone="no"?>
<svg
   xmlns:dc="http://purl.org/dc/elements/1.1/"
   xmlns:cc="http://creativecommons.org/ns#"
   xmlns:rdf="http://www.w3.org/1999/02/22-rdf-syntax-ns#"
   xmlns:svg="http://www.w3.org/2000/svg"
   xmlns="http://www.w3.org/2000/svg"
   xmlns:sodipodi="http://sodipodi.sourceforge.net/DTD/sodipodi-0.dtd"
   xmlns:inkscape="http://www.inkscape.org/namespaces/inkscape"
   width="110.3mm"
   height="50.299999mm"
   viewBox="0 0 110.3 50.299999"
   version="1.1"
   id="svg5236"
   inkscape:version="1.0.1 (3bc2e813f5, 2020-09-07)"
   sodipodi:docname="sideL_with_unhb_logo.svg">
  <defs
     id="defs5230" />
  <sodipodi:namedview
     id="base"
     pagecolor="#ffffff"
     bordercolor="#666666"
     borderopacity="1.0"
     inkscape:pageopacity="0.0"
     inkscape:pageshadow="2"
     inkscape:zoom="2.483727"
     inkscape:cx="219.66856"
     inkscape:cy="101.23337"
     inkscape:document-units="mm"
     inkscape:current-layer="layer1"
     showgrid="false"
     fit-margin-top="0"
     fit-margin-left="0"
     fit-margin-right="0"
     fit-margin-bottom="0"
     inkscape:window-width="1920"
     inkscape:window-height="1017"
     inkscape:window-x="-8"
     inkscape:window-y="-8"
     inkscape:window-maximized="1"
     inkscape:document-rotation="0" />
  <metadata
     id="metadata5233">
    <rdf:RDF>
      <cc:Work
         rdf:about="">
        <dc:format>image/svg+xml</dc:format>
        <dc:type
           rdf:resource="http://purl.org/dc/dcmitype/StillImage" />
        <dc:title></dc:title>
        <cc:license
           rdf:resource="http://creativecommons.org/licenses/by-sa/4.0/" />
        <dc:creator>
          <cc:Agent>
            <dc:title>smash@hacktick.de</dc:title>
          </cc:Agent>
        </dc:creator>
      </cc:Work>
      <cc:License
         rdf:about="http://creativecommons.org/licenses/by-sa/4.0/">
        <cc:permits
           rdf:resource="http://creativecommons.org/ns#Reproduction" />
        <cc:permits
           rdf:resource="http://creativecommons.org/ns#Distribution" />
        <cc:requires
           rdf:resource="http://creativecommons.org/ns#Notice" />
        <cc:requires
           rdf:resource="http://creativecommons.org/ns#Attribution" />
        <cc:permits
           rdf:resource="http://creativecommons.org/ns#DerivativeWorks" />
        <cc:requires
           rdf:resource="http://creativecommons.org/ns#ShareAlike" />
      </cc:License>
    </rdf:RDF>
  </metadata>
  <g
     inkscape:label="Ebene 1"
     inkscape:groupmode="layer"
     id="layer1"
     transform="translate(-2.927885,-83.719137)">
    <g
       transform="translate(2.927875,33.519137)"
       id="g5217">
      <path
         d="m 0.10901,66.45 h 2.941 v 17.8 h -2.941 l -0.059,0.059 v 13.082 l 0.059,0.059 h 27.941 v 2.941 l 0.059,0.059 h 18.082 l 0.059,-0.059 V 97.45 h 17.8 v 2.941 l 0.059,0.059 h 18.082 l 0.059,-0.059 V 97.45 h 27.941 l 0.059,-0.059 V 84.309 l -0.059,-0.059 h -2.941 v -17.8 h 2.941 l 0.059,-0.059 V 53.309 l -0.059,-0.059 h -27.941 v -2.941 l -0.059,-0.059 h -18.082 l -0.059,0.059 v 2.941 h -17.8 v -2.941 l -0.059,-0.059 h -18.082 l -0.059,0.059 v 2.941 h -27.941 l -0.059,0.059 v 13.082 z"
         id="left_outsideCutPath"
         style="font-size:12px;vector-effect:non-scaling-stroke;fill:none;fill-rule:evenodd;stroke:#ff0000;stroke-width:0.1;stroke-linecap:round"
         inkscape:connector-curvature="0" />
      <rect
         y="69.469421"
         x="98.345825"
         height="8.7573109"
         width="8.7573109"
         id="rect827-3"
         style="opacity:1;fill:none;fill-opacity:1;fill-rule:evenodd;stroke:#ff0000;stroke-width:0.24268977;stroke-linecap:round;stroke-linejoin:round;stroke-miterlimit:4;stroke-dasharray:none;stroke-opacity:1" />
    </g>
    <g
       transform="matrix(0,0.52248068,-0.52248068,0,171.30482,77.68378)"
       id="g6010"
       style="display:inline;opacity:0.98;fill:none;stroke:#0000ff;stroke-opacity:1">
      <path
         style="fill:none;stroke:#0000ff;stroke-width:0.110623;stroke-opacity:1"
         d="m 39.591382,222.07391 -3.910356,3.91088 -3.910872,3.91087 v 20.09645 20.09645 l 3.910872,3.91035 3.910356,3.91087 H 59.68783 79.784794 l 3.910354,-3.91087 3.910875,-3.91035 v -20.09645 -20.09645 l -3.910875,-3.91087 -3.910354,-3.91088 H 59.68783 Z m 1.35599,2.73731 h 18.749242 18.748727 l 3.21169,3.21995 3.21169,3.22048 v 18.74873 18.74924 l -3.219958,3.21169 -3.219958,3.21169 H 59.679562 40.930835 l -3.21169,-3.22048 -3.212207,-3.21995 V 249.98384 231.2346 l 3.220475,-3.21169 z"
         id="path5432" />
      <g
         style="fill:none;stroke:#0000ff;stroke-opacity:1"
         id="g5444"
         transform="matrix(0.11062281,0,0,0.11062281,19.40824,190.25767)">
        <path
           style="fill:none;stroke:#0000ff;stroke-opacity:1"
           d="m 198.34583,851.73408 c -3.9334,-3.9334 -4.9484,-8.2474 -4.9484,-21.0309 v -16.0825 h 21.0309 21.0309 v 16.0825 c 0,20.3438 -4.5621,25.9793 -21.0309,25.9793 -7.8351,0 -12.6002,-1.4662 -16.0825,-4.9484 z"
           id="path5442" />
        <path
           style="fill:none;stroke:#0000ff;stroke-opacity:1"
           d="m 273.00383,850.95608 c -4.3265,-4.6054 -5.3798,-8.7228 -5.3798,-21.0309 v -15.3045 h 22.6068 22.6067 l -1.3329,16.6052 c -1.6009,19.9445 -6.5146,25.4566 -22.6925,25.4566 -7.7018,0 -11.8353,-1.4973 -15.8083,-5.7264 z"
           id="path5440" />
        <path
           style="fill:none;stroke:#0000ff;stroke-opacity:1"
           d="m 347.92383,850.60938 c -5.1086,-5.1085 -6.0731,-8.4487 -6.0731,-21.0309 v -14.9578 h 22.26798 22.268 v 14.9578 c 0,19.0971 -6.57834,27.104 -22.268,27.104 -7.44765,0 -11.72628,-1.6045 -16.19488,-6.0731 z"
           id="path5438" />
        <path
           style="fill:none;stroke:#0000ff;stroke-opacity:1"
           d="m 423.71331,852.35258 c -4.07015,-3.3356 -5.63563,-8.165 -6.81745,-21.0309 l -1.53406,-16.701 h 22.62579 22.62577 v 15.6512 c 0,13.1609 -0.91116,16.5071 -5.72647,21.0309 -7.18541,6.7503 -23.54548,7.3013 -31.17358,1.0498 z"
           id="path5436" />
        <path
           style="fill:none;stroke:#0000ff;stroke-opacity:1"
           d="m 497.72668,851.73408 c -3.93337,-3.9334 -4.94844,-8.2474 -4.94844,-21.0309 v -16.0825 h 21.03088 21.03089 v 16.0825 c 0,20.3438 -4.5621,25.9793 -21.03089,25.9793 -7.83504,0 -12.60019,-1.4662 -16.08244,-4.9484 z"
           id="path5434" />
        <path
           style="fill:none;stroke:#0000ff;stroke-opacity:1"
           d="m 52.366743,705.75498 c -6.8254,-6.8255 -6.7722,-24.3257 0.096,-31.6984 4.1842,-4.4912 7.772,-5.4149 21.0309,-5.4149 h 15.9861 v 21.0308 21.0309 h -16.0825 c -12.7835,0 -17.0975,-1.015 -21.0309,-4.9484 z"
           id="path5426" />
        <path
           style="fill:none;stroke:#0000ff;stroke-opacity:1"
           d="m 638.75732,689.67248 v -21.0308 h 16.08244 c 20.34382,0 25.97933,4.5621 25.97933,21.0308 0,16.4688 -5.63551,21.0309 -25.97933,21.0309 h -16.08244 z"
           id="path5424" />
        <path
           style="fill:none;stroke:#0000ff;stroke-opacity:1"
           d="m 52.798043,630.75028 c -5.84,-6.2164 -7.2817,-20.7356 -2.8764,-28.967 2.8554,-5.3353 16.6361,-9.8084 30.2801,-9.8287 l 9.2784,-0.014 v 22.268 22.268 h -15.6512 c -13.1609,0 -16.5071,-0.9112 -21.0309,-5.7265 z"
           id="path5422" />
        <path
           style="fill:none;stroke:#0000ff;stroke-opacity:1"
           d="m 638.75732,613.86998 v -22.6067 l 16.6052,1.3329 c 19.94442,1.601 25.45657,6.5146 25.45657,22.6925 0,15.5799 -7.08226,21.1881 -26.75735,21.1881 h -15.30442 z"
           id="path5420" />
        <path
           style="fill:none;stroke:#0000ff;stroke-opacity:1"
           d="m 53.491443,556.17698 c -8.4395,-8.4395 -8.4395,-23.9502 0,-32.3898 5.1085,-5.1085 8.4487,-6.0731 21.0309,-6.0731 h 14.9578 v 22.268 22.268 h -14.9578 c -12.5822,0 -15.9224,-0.9645 -21.0309,-6.0731 z"
           id="path5418" />
        <path
           style="fill:none;stroke:#0000ff;stroke-opacity:1"
           d="m 638.75732,539.98208 v -22.268 h 14.95778 c 19.09704,0 27.10399,6.5784 27.10399,22.268 0,15.6897 -8.00695,22.268 -27.10399,22.268 h -14.95778 z"
           id="path5416" />
        <path
           style="fill:none;stroke:#0000ff;stroke-opacity:1"
           d="m 60.429743,486.28018 c -7.9586,-1.5348 -13.0114,-10.1297 -13.0114,-22.1328 0,-14.7113 7.9325,-20.6599 27.5501,-20.6599 h 14.5117 v 22.268 22.268 l -11.7526,-0.337 c -6.4639,-0.1853 -14.2479,-0.8181 -17.2978,-1.4063 z"
           id="path5414" />
        <path
           style="fill:none;stroke:#0000ff;stroke-opacity:1"
           d="m 638.75732,466.09418 v -22.6067 h 15.65116 c 19.45713,0 26.41061,5.6697 26.41061,21.5348 0,15.7977 -5.64833,20.7557 -25.45657,22.3458 l -16.6052,1.3329 z"
           id="path5412" />
        <path
           style="fill:none;stroke:#0000ff;stroke-opacity:1"
           d="m 52.366743,406.37414 c -6.837,-6.83701 -6.837,-25.32788 0,-32.16488 3.9334,-3.93338 8.2474,-4.94845 21.0309,-4.94845 h 16.0825 v 21.03089 21.03088 h -16.0825 c -12.7835,0 -17.0975,-1.01506 -21.0309,-4.94844 z"
           id="path5410" />
        <path
           style="fill:none;stroke:#0000ff;stroke-opacity:1"
           d="m 638.75732,390.2917 v -21.03089 h 16.08244 c 20.34382,0 25.97933,4.56208 25.97933,21.03089 0,16.4688 -5.63551,21.03088 -25.97933,21.03088 h -16.08244 z"
           id="path5408" />
        <path
           style="fill:none;stroke:#0000ff;stroke-opacity:1"
           d="m 193.39743,249.26106 c 0,-20.34382 4.5621,-25.97933 21.0309,-25.97933 16.4688,0 21.0309,5.63551 21.0309,25.97933 v 16.08244 h -21.0309 -21.0309 z"
           id="path5406" />
        <path
           style="fill:none;stroke:#0000ff;stroke-opacity:1"
           d="m 267.62403,250.83184 c 0,-19.75455 5.9242,-27.55011 20.9364,-27.55011 16.4541,0 21.3355,5.4159 22.9442,25.45658 l 1.3329,16.60519 h -22.6067 -22.6068 z"
           id="path5404" />
        <path
           style="fill:none;stroke:#0000ff;stroke-opacity:1"
           d="m 341.85073,250.3857 c 0,-19.09702 6.5783,-27.10397 22.26798,-27.10397 15.68966,0 22.268,8.00695 22.268,27.10397 v 14.9578 h -22.268 -22.26798 z"
           id="path5402" />
        <path
           style="fill:none;stroke:#0000ff;stroke-opacity:1"
           d="m 416.09117,256.06517 c 0.0198,-13.64405 4.49339,-27.42474 9.82867,-30.2801 8.64694,-4.6277 23.46941,-2.99792 29.31379,3.22313 4.32648,4.60534 5.37973,8.72275 5.37973,21.03088 v 15.30442 h -22.268 -22.26799 l 0.0148,-9.27833 z"
           id="path5400" />
        <path
           style="fill:none;stroke:#0000ff;stroke-opacity:1"
           d="m 492.77824,249.35744 c 0,-19.93016 5.06654,-26.07571 21.49742,-26.07571 15.95665,0 20.56435,5.821 20.56435,25.97933 v 16.08244 h -21.03089 -21.03088 z"
           id="path3783" />
      </g>
      <g
         transform="matrix(0.07822214,-0.07822214,0.07822214,0.07822214,19.885841,190.63782)"
         style="font-style:normal;font-variant:normal;font-weight:bold;font-stretch:normal;font-size:35px;line-height:125%;font-family:MaiersNr8;-inkscape-font-specification:'MaiersNr8 Bold';letter-spacing:0px;word-spacing:0px;fill:none;fill-opacity:1;stroke:#0000ff;stroke-width:1px;stroke-linecap:butt;stroke-linejoin:miter;stroke-opacity:1"
         id="text5607">
        <path
           d="m -132.26445,252.07271 c 0,-7.56 -0.14,-6.09 -2.94,-7 -0.56,-0.21 -2.45,-0.14 -3.01,-0.14 -3.57,0.56 -3.43,1.19 -3.43,6.86 l -0.35,21.56 0.35,3.57 -0.56,3.36 0.49,6.23 -0.21,5.67 0.28,1.61 c 0,2.45 -0.42,0.98 -3.22,1.54 -1.33,0.28 -2.66,0 -3.99,0 l -5.11,-0.21 c -4.41,0 -4.13,0 -4.13,-4.48 l -0.21,-2.94 0.56,-6.02 -0.56,-5.18 0.7,-23.52 c 0,-1.12 -0.42,-2.17 -0.42,-3.22 0,-4.55 0.84,-5.32 -5.74,-5.32 -4.13,0 -3.29,2.03 -3.29,8.4 l -0.14,6.23 0.28,4.62 -0.42,3.78 0.21,3.01 c -0.07,1.89 -0.35,3.71 -0.35,5.6 l 0.49,3.5 c 0,1.05 -0.49,1.75 -0.56,2.8 -0.35,3.36 -0.35,6.86 -0.35,10.29 0,1.12 0.56,2.17 0.49,3.36 -0.07,1.19 -0.56,2.31 -0.56,3.64 0,2.31 1.12,5.32 3.85,5.32 l 2.31,-0.7 c 0.63,0 1.19,0.63 1.96,0.63 1.89,0 3.08,-2.03 4.69,-2.03 1.12,0 2.38,2.24 4.41,2.24 l 7,-0.21 6.09,0.21 c 3.15,0 5.04,-0.98 5.04,-4.41 l -0.35,-7.49 0.35,-5.88 -0.28,-9.38 0.21,-2.17 -0.49,-3.71 0.56,-13.44 c 0,-0.84 -0.56,-1.61 -0.63,-2.45 z"
           style="font-style:normal;font-variant:normal;font-weight:bold;font-stretch:normal;font-size:70px;font-family:MaiersNr8;-inkscape-font-specification:'MaiersNr8 Bold';fill:none;stroke:#0000ff;stroke-opacity:1"
           id="path4192" />
        <path
           d="m -83.346484,260.33271 -0.63,-5.18 c 0,-8.75 1.89,-11.69 -5.53,-11.69 -2.45,0 -3.57,1.61 -3.57,3.85 l 0.28,6.86 -0.28,3.57 c 0,2.59 1.96,2.31 1.61,3.01 -0.56,1.89 -1.4,-0.07 -1.4,4.13 0,1.33 1.05,1.54 -0.7,2.73 -1.05,-0.07 -1.96,-1.05 -2.45,-1.82 l -3.71,-5.46 c -1.329996,-2.03 -2.449996,-2.87 -3.919996,-4.83 -0.28,-0.35 -0.63,-0.63 -0.84,-1.12 -0.63,-1.12 -0.84,-2.31 -1.61,-3.36 -0.49,-0.56 -0.98,-0.91 -1.33,-1.47 -0.91,-1.47 -0.98,-3.29 -2.45,-4.41 -1.96,-1.47 -3.01,-1.96 -5.46,-1.96 -4.27,0 -4.62,-0.49 -5.39,3.57 -0.77,3.71 -0.84,8.19 -0.84,12.11 l 0.63,3.29 v 8.82 l -0.42,5.6 c 0,1.05 0.28,2.1 0.21,3.15 -0.07,1.75 -0.56,3.36 -0.56,5.25 0,3.71 0.28,2.38 0.28,11.27 l -0.42,3.78 c 0,4.97 2.45,5.32 5.18,5.32 3.71,0 5.11,-0.28 5.11,-4.48 0,-0.49 -0.21,-0.84 -0.28,-1.33 -0.28,-4.2 -0.42,-8.47 -0.42,-12.88 l 0.42,-3.36 -0.35,-3.92 0.7,-11.55 0.7,-5.18 c 0,-1.05 0.28,-1.75 1.12,-0.63 3.08,3.92 5.11,8.54 8.4,12.39 0.49,0.63 0.98,1.05 1.469996,1.82 0.91,1.47 1.54,1.68 2.31,3.36 0.77,1.47 1.96,2.52 2.87,3.85 1.19,1.75 1.26,5.32 1.26,7.42 l -0.42,9.17 c 0,4.13 0.84,5.46 4.13,5.46 4.76,0 5.81,-0.98 5.81,-3.78 l -0.49,-6.51 0.56,-7.56 -0.28,-3.78 0.28,-3.99 -0.21,-14.14 z"
           style="font-style:normal;font-variant:normal;font-weight:bold;font-stretch:normal;font-size:70px;font-family:MaiersNr8;-inkscape-font-specification:'MaiersNr8 Bold';fill:none;stroke:#0000ff;stroke-opacity:1"
           id="path4194" />
        <path
           d="m -69.531005,281.25131 c 3.577474,0 5.149621,0.0521 11.032607,-1.10068 l 10.332176,-0.80049 0.400246,5.77363 -2.001231,2.7718 -9.131437,0.60036 -10.132053,1.20074 -0.200123,-4.5729 z"
           style="font-style:normal;font-variant:normal;font-weight:bold;font-stretch:normal;font-size:70px;font-family:MaiersNr8;-inkscape-font-specification:'MaiersNr8 Bold';fill:none;stroke:#0000ff;stroke-opacity:1"
           id="path4196" />
      </g>
      <g
         transform="matrix(0.07822214,0.07822214,-0.07822214,0.07822214,19.40824,190.25767)"
         style="font-style:normal;font-variant:normal;font-weight:bold;font-stretch:normal;font-size:70px;line-height:125%;font-family:MaiersNr8;-inkscape-font-specification:'MaiersNr8 Bold';letter-spacing:0px;word-spacing:0px;fill:none;fill-opacity:1;stroke:#0000ff;stroke-width:1px;stroke-linecap:butt;stroke-linejoin:miter;stroke-opacity:1"
         id="text5611-9">
        <path
           style="fill:none;stroke:#0000ff;stroke-width:1.06667px;stroke-opacity:1"
           d="m 50.091797,559.9375 c -0.832176,0.021 -1.702607,0.41745 -2.751953,1.4668 l -2.21875,2.5332 -3.53711,2.9043 -2.585937,3.00976 -3.486328,3.0625 c -1.478325,1.47833 -2.375263,3.4319 -3.800781,4.85742 l -6.705079,5.64844 -3.800781,4.64649 -10.191406,10.50586 -3.1660158,2.53515 c -0.5807694,0.58077 -0.6871853,1.42497 -0.9511718,2.11133 -0.9503516,2.32308 -1.3734223,2.32384 0.5800781,4.27734 l 2.0078125,1.37305 c 1.108743,1.10874 1.688006,2.95558 2.902344,4.16992 0.211189,0.21119 -0.03774,0.33962 1.546248,1.29079 3.306696,3.19846 6.242816,6.39086 7.061174,7.20921 1.37273,1.37273 10.241126,10.24395 11.138671,10.40235 1.847906,0.26398 4.752396,-2.53365 6.019532,-3.80079 l 4.277344,-4.69921 3.800781,-3.0625 c 2.270284,-2.27029 4.013045,-4.75133 6.177734,-6.91602 l 1.794922,-1.26758 c 2.587068,-2.58707 0.686367,-10.61215 1.636719,-11.5625 0.633567,-0.63357 7.021738,-0.37078 8.447265,-0.63476 2.375879,-0.68637 10.401717,-8.39391 12.566407,-10.5586 2.481473,-2.48147 -0.0016,-5.3864 -1.902344,-7.28711 l -6.757813,-5.91211 -1.560547,-1.60937 -6.517578,-6.99609 c -0.475175,-0.47518 -1.106927,-0.687 -1.529296,-1.10938 -1.478325,-1.47832 -2.69374,-3.2207 -4.013672,-4.85742 -1.814908,-0.75896 -3.093509,-1.76553 -4.480469,-1.73047 z m 1.576172,13.82031 c 0.950351,0 1.162426,0.84463 2.535156,0.10547 0.633568,-0.31678 3.246348,4.61939 4.671875,6.04492 0.218892,0.20246 0.1679,0.15798 0.287109,0.26953 0.131256,0.10476 0.51078,0.42638 1.363282,1.16993 l 1.65039,1.43945 1.212891,1.84766 c 1.425527,1.74231 2.008062,2.00561 0.160156,3.85351 -1.003149,1.00315 -2.482676,2.16621 -3.908203,2.00781 -1.583919,0 -3.115425,0.0512 -4.59375,-0.26562 -2.006298,-0.42238 -3.853077,-1.10717 -5.859375,-1.31836 -2.587068,-0.26399 -8.81811,0.15845 -10.666016,-1.68945 -0.950351,-0.95036 1.743386,-3.64378 2.376954,-4.27735 l 3.0625,-3.80078 c 0.422369,-0.42238 1.056074,-0.52886 1.53125,-0.89844 1.531112,-1.00315 4.380672,-4.48828 6.175781,-4.48828 z m -23.394531,22.48633 c 1.216288,-0.1057 2.506452,0.36821 3.859374,0.5332 1.108744,0.1584 2.798136,-0.58026 3.378907,-0.42187 l 1.373047,0.63476 4.541015,0.52735 c 1.214338,0.36958 2.21724,0.94909 3.484375,1.05469 4.276582,4.27658 -2.111647,10.56086 -5.121094,13.57031 l -3.0625,2.42773 c -1.055937,1.05595 -3.484314,4.01374 -5.173828,2.32422 -0.475175,-0.47517 -0.686807,-1.00321 -1.267578,-1.58398 -1.847906,-1.84791 -5.270891,-6.20032 -7.972656,-8.60743 -2.692663,-4.17089 1.004414,-6.59816 3.855469,-9.44921 0.673165,-0.67317 1.37569,-0.94635 2.105469,-1.00977 z"
           transform="matrix(0.66291259,-0.66291259,0.66291259,0.66291259,183.03512,116.33824)"
           id="path4208" />
        <path
           d="m 704.43229,487.21823 -0.42,-9.59 c 0,-7.91 0.07,-6.86 -9.45,-6.86 -4.13,0 -3.71,0.56 -5.53,0.56 -2.45,0.07 -4.55,-0.98 -7,-0.98 -0.49,0 -0.98,0.35 -1.54,0.35 -4.69,0 -4.83,0.28 -4.83,2.31 l -0.42,10.15 0.28,13.16 -0.49,11.55 c 0,6.44 0.14,6.51 4.55,6.51 3.99,0 5.04,0.56 5.04,-5.39 0,-1.61 -0.63,-1.54 -0.63,-4.9 0,-2.94 0.49,-3.01 0.49,-4.55 l -0.28,-5.74 c 0,-1.68 -0.07,-11.62 0.56,-12.25 0.49,-0.7 6.44,-0.77 7.63,-0.77 2.73,0 2.66,0.28 2.66,2.59 l -0.28,5.32 c 0,4.2 0.63,4.06 5.11,4.06 4.13,0 4.55,0.14 4.55,-5.53 z"
           id="path4212"
           style="fill:none;stroke:#0000ff;stroke-opacity:1" />
      </g>
      <g
         transform="matrix(0.07822214,-0.07822214,0.07822214,0.07822214,17.805391,190.93571)"
         style="font-style:normal;font-variant:normal;font-weight:bold;font-stretch:normal;font-size:35px;line-height:125%;font-family:MaiersNr8;-inkscape-font-specification:'MaiersNr8 Bold';letter-spacing:0px;word-spacing:0px;fill:none;fill-opacity:1;stroke:#0000ff;stroke-width:1px;stroke-linecap:butt;stroke-linejoin:miter;stroke-opacity:1"
         id="text5607-6">
        <path
           style="font-style:normal;font-variant:normal;font-weight:bold;font-stretch:normal;font-size:70px;font-family:MaiersNr8;-inkscape-font-specification:'MaiersNr8 Bold';fill:none;stroke:#0000ff;stroke-width:1.06667px;stroke-opacity:1"
           d="m 568.38672,634.25391 c -0.85662,0.006 -1.72498,0.53552 -2.85352,1.66406 -0.47517,0.47518 -0.63439,1.16135 -0.95117,1.79492 l -2.63867,1.68945 c -1.16154,1.47832 -3.95999,4.38124 -4.75195,5.70118 -0.42237,0.73916 -0.58134,1.42508 -1.16211,2.00586 l -5.33203,3.85546 c -2.90385,2.90385 -4.06559,4.48716 0.1582,8.71094 l 4.96289,4.22461 6.23047,7.17969 12.40625,12.93554 c 3.37902,3.37903 4.59432,4.48772 7.39258,1.68946 l 16.73632,-16.20899 c 2.58707,-2.58707 3.64327,-3.85478 -0.21093,-7.70898 -2.69267,-2.69266 -4.01198,-2.42748 -8.71094,2.27148 -1.9007,1.9007 -3.3803,4.75138 -5.49219,6.86329 -2.90385,2.90384 -4.22348,3.37808 -6.81054,0.79101 -1.50473,-1.50472 -2.15176,-2.49312 -2,-3.5293 0.0759,-0.51806 0.36821,-1.22266 0.83593,-1.83398 l 7.46094,-6.76563 1.83398,-1.59765 c 4.33649,-3.77488 3.74919,-5.22739 -0.47461,-9.45117 -1.31992,-1.31993 -3.01002,-2.16432 -4.43554,-3.58985 l -2.79883,-3.2207 -4.06445,-3.53711 c -2.50788,-2.50787 -3.90239,-3.94442 -5.33008,-3.93359 z m 1.68359,14.08007 c 0.80644,-0.0119 1.60313,0.48204 2.64258,1.52149 3.37906,3.37906 2.90347,3.85433 0.31641,6.44141 l -4.09375,3.04296 c -0.58077,0.58077 -0.6039,0.91741 -1.92383,1.39258 -0.79196,0.36958 -1.37236,-0.63407 -1.95313,-1.21484 -4.06542,-4.06542 -3.69738,-3.69715 1.31836,-8.71289 1.60372,-1.60372 2.65651,-2.45536 3.69336,-2.47071 z"
           transform="matrix(0.66291259,0.66291259,-0.66291259,0.66291259,-101.7587,188.94658)"
           id="path4215" />
        <path
           d="m -127.52153,1016.1356 h 12.30469 v 13.2276 h -12.30469 z"
           style="font-style:normal;font-variant:normal;font-weight:bold;font-stretch:normal;font-size:70px;font-family:MaiersNr8;-inkscape-font-specification:'MaiersNr8 Bold';fill:none;stroke:#0000ff;stroke-opacity:1"
           id="path4217" />
        <path
           d="m -69.154929,971.26316 c 0,-2.17 0.56,-3.43 -3.01,-3.43 l -0.84,0.14 c -3.99,0 -3.5,0.56 -4.97,3.29 -1.61,3.08 -2.03,6.51 -2.8,9.87 -0.49,1.75 -1.4,3.29 -1.96,4.97 -2.38,8.54 -3.43,20.30004 -7.7,27.93004 -0.07,0.21 -0.14,0.49 -0.63,-0.56 -1.75,-3.99 -3.08,-8.12 -3.92,-12.39 -0.49,-2.17004 -0.35,-4.55004 -1.26,-6.58004 -0.28,-0.77 -1.05,-1.61 -1.05,-2.38 0,-3.71 -0.7,-7.35 -2.38,-10.64 -2.030001,-4.13 -1.680001,-8.4 -3.010001,-12.6 -0.49,-1.68 -1.4,-1.33 -4.97,-1.33 -3.29,0 -3.15,0.7 -3.15,2.38 0,3.57 1.75,6.86 2.38,10.29 1.96,11.13 4.55,21.91004 7.28,32.90004 0.84,3.64 1.330001,7.28 2.240001,10.92 1.33,5.25 1.26,5.6 4.97,5.6 l 3.85,-0.56 2.31,0.28 c 1.96,0 3.29,0.07 4.34,-2.45 0.56,-1.47 0.35,-3.08 0.63,-4.55 l 0.98,-3.71 c 0.91,-3.99 2.31,-7.91 3.5,-11.83 0.56,-1.96 0.7,-3.92 1.19,-5.81 l 3.01,-10.29004 c 0.63,-3.08 1.19,-6.09 2.38,-9.1 0.91,-2.45 2.59,-7.91 2.59,-10.36 z"
           style="font-style:normal;font-variant:normal;font-weight:bold;font-stretch:normal;font-size:70px;font-family:MaiersNr8;-inkscape-font-specification:'MaiersNr8 Bold';fill:none;stroke:#0000ff;stroke-opacity:1"
           id="path4219" />
        <path
           d="m -58.478561,1016.1356 h 12.304687 v 13.2276 h -12.304687 z"
           style="font-style:normal;font-variant:normal;font-weight:bold;font-stretch:normal;font-size:70px;font-family:MaiersNr8;-inkscape-font-specification:'MaiersNr8 Bold';fill:none;stroke:#0000ff;stroke-opacity:1"
           id="path4221" />
      </g>
      <path
         style="font-style:normal;font-variant:normal;font-weight:bold;font-stretch:normal;font-size:70px;line-height:125%;font-family:MaiersNr8;-inkscape-font-specification:'MaiersNr8 Bold';letter-spacing:0px;word-spacing:0px;display:inline;fill:none;fill-opacity:1;stroke:#0000ff;stroke-width:0.110623px;stroke-linecap:butt;stroke-linejoin:miter;stroke-opacity:1"
         d="m 32.287717,276.82103 c -0.15432,3.2e-4 -0.294054,0.14882 -0.513075,0.36785 -0.279254,0.27925 -0.213711,0.38869 0.136725,0.73913 l 0.575058,0.50922 c 0.06023,0.0602 0.08764,0.15346 0.142397,0.21917 0.208069,0.26282 0.388725,0.35587 0.202556,0.54204 -0.350435,0.35044 -0.328553,0.28468 -0.662562,0.0383 -0.0083,-0.007 -0.01388,-0.0156 -0.02066,-0.0235 -0.01443,-0.0127 -0.03122,-0.0282 -0.06158,-0.0585 0.0037,-0.006 0.0087,-0.011 0.01175,-0.0172 -0.0049,0.005 -0.01008,0.01 -0.01499,0.0142 -0.109145,-0.10933 -0.290889,-0.29898 -0.429216,-0.44056 -0.03012,-0.0301 -0.0643,-0.0562 -0.09783,-0.0829 -0.03353,-0.0267 -0.06641,-0.054 -0.09378,-0.0869 l -0.131459,-0.19709 c -0.129359,-0.12936 -0.250319,-0.17477 -0.365614,-0.1663 -0.192158,0.0141 -0.368724,0.17791 -0.543257,0.35245 l -1.116491,1.11629 c 0,0 -0.482449,0.42784 -0.175818,0.73447 l 0.113634,0.0863 0.882622,0.77686 c 0.127856,0.1133 0.431874,0.42585 0.569707,0.59323 l 0.153335,0.18635 c 0.241209,0.2929 0.312153,0.34494 0.640686,0.0164 0.114987,-0.11499 0.197166,-0.22997 0.301202,-0.34496 l 0.158804,-0.12599 1.001844,-1.03486 c 0.07118,-0.0712 0.164376,-0.10949 0.246511,-0.19162 l 0.897932,-0.95282 c 0.109512,-0.10951 0.295726,-0.20803 0.301202,-0.37777 0,-0.20807 -0.427016,-0.66806 -0.574855,-0.8159 -0.06571,-0.0657 -0.224538,-0.19156 -0.306671,-0.24084 l -0.120521,-0.0768 c -0.08213,-0.0493 -0.08216,-0.16966 -0.147866,-0.23537 -0.08213,-0.0821 -0.246395,-0.20268 -0.344953,-0.26838 -0.136891,-0.0821 -0.186215,-0.26278 -0.301202,-0.37777 -0.1232,-0.1232 -0.220965,-0.17642 -0.313557,-0.17623 z m -0.18939,2.31644 c 0.0138,0.0271 0.02986,0.0526 0.04983,0.0758 0.0307,0.0271 0.0332,0.0228 -0.04983,-0.0758 z m -1.165712,0.42618 c 0.390273,0.17557 0.433796,0.26094 0.617391,0.42334 0.04654,0.0383 0.08463,0.0728 0.113027,0.10553 0.02841,0.0327 0.04708,0.0634 0.0553,0.0942 0.0082,0.0308 0.0059,0.0617 -0.0081,0.0944 -0.01403,0.0327 -0.03965,0.0672 -0.07798,0.10553 -0.03422,0.0342 -0.05726,0.0654 -0.07292,0.0936 -0.01566,0.0281 -0.02403,0.0533 -0.02917,0.0756 -0.0051,0.0222 -0.0071,0.0414 -0.0097,0.0579 -0.0027,0.0165 -0.006,0.0302 -0.01418,0.0411 -0.01095,0.011 -0.02089,0.0163 -0.03038,0.0172 -0.0095,9.3e-4 -0.01851,-0.002 -0.02775,-0.008 -0.0092,-0.006 -0.01878,-0.0142 -0.02897,-0.0235 -0.01014,-0.009 -0.02112,-0.0196 -0.03342,-0.0292 -0.0219,-0.0137 -0.04541,-0.0171 -0.0715,-0.0172 -0.02609,-1.1e-4 -0.05467,0.003 -0.0869,0.003 -0.03223,-4.1e-4 -0.06805,-0.005 -0.108368,-0.0192 -0.04032,-0.0147 -0.08514,-0.0399 -0.13551,-0.0826 0,0 -0.05877,-0.0392 -0.08811,-0.0587 -0.0549,-0.0229 -0.352001,-0.22842 -0.367843,-0.26292 -0.01585,-0.0345 -0.01434,-0.0743 -6.12e-4,-0.1187 0.01388,-0.0444 0.04027,-0.0933 0.07454,-0.14584 0.03427,-0.0526 0.07639,-0.10887 0.121737,-0.16792 0.07074,-0.0921 0.133825,-0.14322 0.194657,-0.16306 0.01713,-0.006 0.01853,-0.0101 0.01479,-0.0138 z"
         id="path4201-9" />
      <g
         id="g999"
         transform="matrix(0.11062281,0,0,0.11062281,14.231052,191.3203)"
         style="fill:none;stroke:#0000ff;stroke-opacity:1">
        <g
           id="text5611"
           style="font-style:normal;font-variant:normal;font-weight:bold;font-stretch:normal;font-size:70px;line-height:125%;font-family:MaiersNr8;-inkscape-font-specification:'MaiersNr8 Bold';letter-spacing:0px;word-spacing:0px;display:inline;fill:none;fill-opacity:1;stroke:#0000ff;stroke-width:1px;stroke-linecap:butt;stroke-linejoin:miter;stroke-opacity:1"
           transform="rotate(45,18.118109,41.325285)">
          <path
             id="path4199"
             d="m 599.33947,-264.21666 c 0,-1.89 -0.7,-3.57 -0.7,-5.32 l 0.28,-3.08 -0.21,-1.33 c 0,-1.4 0.21,-3.71 -1.82,-3.71 l -4.06,-0.14 c -0.28,0 -0.49,0.07 -0.56,0.14 -2.17,0 -2.17,1.33 -2.17,4.13 l 0.28,5.74 -0.42,10.92 c 0,0.56 0.42,1.05 0.42,1.68 0,0.56 -0.7,0.91 -0.7,1.68 0,0.84 0.42,2.87 -0.91,2.87 l -3.15,0.35 -6.37,-0.42 c -0.49,0 -0.77,0.14 -1.12,0.14 -4.34,0 -3.15,-0.84 -4.69,-4.06 -0.21,-2.87 -0.77,-5.67 -0.77,-8.68 l 0.35,-3.36 0.14,-7.56 c 0,-3.29 -1.12,-4.41 -5.25,-4.41 -4.27,0 -3.36,0.98 -3.71,4.48 -0.21,0.56 -0.28,1.05 -0.28,1.68 0,0.49 0.28,0.91 0.28,1.47 l -0.28,1.89 c 0,2.17 -0.14,4.76 0.07,6.93 0.07,0.49 0.21,0.98 0.21,1.54 l -0.7,6.72 c 0,2.8 0.14,5.6 0.63,8.33 -0.21,0.91 -0.35,1.82 -0.35,2.59 l 0.35,5.81 c 0,1.96 -0.7,3.85 -0.7,5.88 l 0.21,3.22 c 0,0.56 -0.28,1.12 -0.28,1.75 l 0.21,2.87 c 0,5.04 -0.91,7.84 3.57,7.84 5.81,0 5.88,-0.49 5.88,-6.44 0,-3.08 -0.84,-3.29 -0.84,-4.06 l 0.77,-2.66 -0.28,-2.03 0.49,-5.18 c 0,-1.47 -0.7,-5.18 1.68,-5.18 1.12,0 2.31,0.14 3.43,0.07 0.49,-0.07 1.05,-0.21 1.54,-0.21 l 2.94,0.49 3.99,-0.28 c 0.84,0 3.15,0.35 3.15,1.47 l -0.21,2.03 0.28,3.15 -0.63,11.48 c 0,5.95 0.07,7.77 5.04,7.77 3.71,0 4.69,-0.56 4.69,-3.92 l -0.56,-4.13 -0.14,-2.52 0.49,-2.94 -0.42,-2.94 0.21,-1.82 c 0,-0.77 -0.49,-1.26 -0.49,-1.89 0,-1.12 0.56,-2.1 0.56,-3.29 0,-1.89 0,-3.78 -0.28,-5.67 l -0.14,-1.33 0.77,-1.96 0.07,-4.69 -0.42,-4.2 0.49,-4.27 -0.21,-1.4 z"
             style="fill:none;stroke:#0000ff;stroke-opacity:1" />
          <path
             id="path4203"
             d="m 680.58212,-246.57666 c 0,-1.33 -0.42,-2.59 -0.49,-3.92 -0.21,-7 0.63,-8.82 -5.18,-8.82 -0.84,0 -1.54,0.49 -2.31,0.49 l -9.45,-0.56 c -1.19,0 -2.31,0.35 -3.5,0.56 -1.12,0.21 -2.17,-0.56 -3.29,-0.56 -5.6,0 -6.65,1.05 -6.65,4.27 l 0.35,6.02 -0.42,10.78 0.21,3.71 c -0.07,2.31 -0.42,4.62 -0.42,6.93 l 0.21,2.45 c 0.07,1.61 -0.35,3.29 -0.35,4.9 0,4.55 3.22,4.62 10.99,4.62 l 11.69,-0.63 c 7.07,0 8.19,0.84 8.19,-3.29 0,-0.77 -0.21,-1.33 -0.42,-2.1 -0.35,-2.17 0.7,-4.13 -3.29,-4.13 -1.12,0 -4.27,0.07 -5.18,0.42 -1.05,0.28 -2.03,-0.49 -3.08,-0.49 -2.45,0 -0.98,0.42 -3.15,0.42 -2.45,0 -1.19,-0.63 -3.71,-0.42 -2.17,0.21 -2.73,-0.56 -2.73,-2.73 0,-1.19 0.35,-2.31 0.35,-3.64 l 0.21,-10.15 -0.28,-4.62 c 0,-1.96 0.63,-2.59 1.96,-2.59 l 1.61,0.21 c 0.91,-0.07 1.68,-0.42 2.59,-0.42 1.61,0 3.29,0.14 4.97,0.42 1.05,0.21 1.12,1.19 1.12,2.1 0,5.67 0.35,5.6 5.74,5.6 3.57,0 3.71,-0.28 3.71,-4.83 z"
             style="fill:none;stroke:#0000ff;stroke-opacity:1" />
          <path
             id="path4205"
             d="m 722.81728,-218.78666 c 0,-0.91 -4.41,-8.82 -5.25,-9.45 -0.35,-0.35 -1.33,-0.56 -1.33,-1.19 0,-2.52 -4.9,-9.8 -4.9,-11.27 0,-1.68 1.54,-2.1 6.02,-9.8 0.49,-0.91 0.7,-1.96 1.33,-2.8 0.84,-1.33 2.45,-2.31 2.45,-4.06 0,-1.89 1.68,-2.38 -3.92,-2.38 -4.13,0 -4.2,0.42 -7.42,5.53 l -1.68,2.1 c -1.33,1.75 -1.96,3.85 -3.36,5.53 -0.56,0.77 -1.19,1.68 -2.1,1.68 h -2.03 c -2.17,0.07 -2.45,-0.28 -2.45,-1.96 l -0.28,-7.84 0.35,-1.61 c 0,-2.17 -0.28,-4.2 -0.21,-6.23 0.07,-1.05 0.42,-1.96 0.42,-3.01 l 0.14,-8.4 c 0,-4.97 0.14,-3.78 -5.46,-3.78 -3.99,0 -4.13,0.35 -4.13,5.67 l 0.49,8.61 -0.56,8.61 0.49,10.57 -0.28,5.95 -0.28,10.57 0.42,3.08 c 0,7.35 -1.05,8.68 1.89,8.33 1.47,-0.28 3.15,0.63 4.48,0.63 1.89,0 2.8,-0.07 2.8,-3.15 l -0.91,-8.12 c 0,-0.77 0.42,-1.61 0.42,-2.66 0,-1.68 -0.42,-6.86 2.24,-6.86 l 2.1,0.77 c 0.77,0 1.68,-0.49 2.03,0.14 3.01,5.67 5.81,11.55 9.1,17.15 1.33,2.03 1.68,2.03 5.53,2.03 4.48,0 3.85,-0.28 3.85,-2.38 z"
             style="fill:none;stroke:#0000ff;stroke-opacity:1" />
        </g>
        <path
           style="font-style:normal;font-variant:normal;font-weight:bold;font-stretch:normal;font-size:70px;line-height:125%;font-family:MaiersNr8;-inkscape-font-specification:'MaiersNr8 Bold';letter-spacing:0px;word-spacing:0px;display:inline;fill:none;fill-opacity:1;stroke:#0000ff;stroke-width:1.06667px;stroke-linecap:butt;stroke-linejoin:miter;stroke-opacity:1"
           d="m 592.73633,49.230469 c -1.48801,0.0032 -2.83538,1.434971 -4.94727,3.546875 -2.69267,2.692661 -2.06067,3.747923 1.31836,7.126953 l 5.54492,4.910156 c 0.58078,0.580757 0.84506,1.479713 1.37305,2.113281 2.00628,2.534272 3.74823,3.431459 1.95313,5.226563 -3.37903,3.379029 -3.16805,2.745012 -6.38868,0.369141 -0.0803,-0.06688 -0.13385,-0.150648 -0.19922,-0.226563 -0.1391,-0.122763 -0.30104,-0.27193 -0.59374,-0.564453 0.0354,-0.05675 0.0838,-0.105813 0.11328,-0.166016 -0.047,0.04384 -0.0972,0.09258 -0.14454,0.136719 -1.0524,-1.054165 -2.80485,-2.882874 -4.13867,-4.248047 -0.29039,-0.290389 -0.62004,-0.541441 -0.94336,-0.798828 -0.32331,-0.257387 -0.64031,-0.521112 -0.90429,-0.837891 l -1.26758,-1.90039 c -1.24733,-1.247328 -2.41367,-1.685159 -3.52539,-1.603516 -1.85287,0.136064 -3.55538,1.715515 -5.23828,3.398438 l -10.76563,10.763671 c 0,0 -4.65196,4.125381 -1.69531,7.082032 l 1.0957,0.832031 5.89844,5.634766 c 3.04729,2.586708 6.77642,5.962306 8.10547,7.576171 l 1.47851,1.796876 c 2.32584,2.824242 3.0099,3.326042 6.17774,0.158203 1.10876,-1.108747 1.90115,-2.217426 2.9043,-3.326172 l 1.53125,-1.214844 9.66015,-9.978516 c 0.68635,-0.686368 1.585,-1.055709 2.37695,-1.847656 l 8.65821,-9.1875 c 1.05596,-1.055957 2.8515,-2.005863 2.90429,-3.642578 0,-2.006304 -4.11743,-6.441652 -5.54296,-7.867187 -0.63358,-0.633569 -2.16508,-1.847098 -2.95704,-2.322266 l -1.1621,-0.740234 c -0.79196,-0.475179 -0.79222,-1.635964 -1.42579,-2.269532 -0.79195,-0.791968 -2.37583,-1.954312 -3.32617,-2.58789 -1.31995,-0.791958 -1.79554,-2.533833 -2.90429,-3.642578 -1.18794,-1.187947 -2.13063,-1.701086 -3.02344,-1.699219 z m -1.82617,22.335937 c 0.13309,0.261056 0.28796,0.506853 0.48046,0.730469 0.29607,0.261259 0.32018,0.220411 -0.48046,-0.730469 z m -11.24024,4.109375 c 3.76317,1.69295 4.18283,2.516123 5.95313,4.082031 0.44879,0.369579 0.81597,0.7024 1.08984,1.017579 0.27391,0.315114 0.45401,0.611211 0.5332,0.908203 0.0792,0.296981 0.057,0.59502 -0.0781,0.910156 -0.13529,0.315136 -0.38238,0.647978 -0.75195,1.017578 -0.32999,0.329973 -0.55216,0.630931 -0.70313,0.902344 -0.15103,0.271392 -0.23173,0.514041 -0.28125,0.728516 -0.0495,0.214505 -0.0685,0.399372 -0.0937,0.558593 -0.0256,0.159222 -0.0575,0.290885 -0.13672,0.396485 -0.1056,0.1056 -0.20139,0.156949 -0.29297,0.166015 -0.0916,0.0085 -0.17848,-0.02397 -0.26758,-0.08008 -0.0891,-0.056 -0.18109,-0.136664 -0.27929,-0.226562 -0.0978,-0.09035 -0.20363,-0.188706 -0.32227,-0.28125 -0.21119,-0.132 -0.43789,-0.1648 -0.68945,-0.166016 -0.25155,-9.92e-4 -0.52714,0.02955 -0.83789,0.02539 -0.31075,-0.0043 -0.65612,-0.04405 -1.04492,-0.185547 -0.38879,-0.141408 -0.82096,-0.384513 -1.30664,-0.796875 0,0 -3.15069,-2.039663 -3.4336,-2.228516 -0.52934,-0.220725 -0.81014,-0.540353 -0.96289,-0.873047 -0.1528,-0.332672 -0.13818,-0.716435 -0.006,-1.144531 0.13381,-0.428075 0.38828,-0.899263 0.71875,-1.40625 0.33048,-0.506987 0.73663,-1.049765 1.17383,-1.619141 0.68209,-0.888341 1.29039,-1.380948 1.87695,-1.572265 0.1652,-0.05387 0.17869,-0.09738 0.14258,-0.132813 z"
           transform="matrix(0.93749998,0,0,0.93749998,93.962192,202.08302)"
           id="path4201-9-4" />
      </g>
      <path
         style="display:inline;fill:none;stroke:#0000ff;stroke-width:0.110623;stroke-opacity:1"
         d="m 43.377714,226.72686 h 2.413806 z m 2.413806,0 c 0.06322,0.13883 0.130763,0.29029 0.21239,0.47491 l 0.178801,1.00872 c 0.09861,0.17983 0.303593,0.2983 0.386023,0.48473 l 1.189592,3.03547 0.477488,0.77721 0.164333,0.50126 0.791684,1.6521 c 0.03386,-0.16564 0.211373,-0.29494 0.670758,-0.48214 0.954776,-0.38908 1.323565,-0.24598 1.646412,0.48421 l 0.709518,1.69137 0.248562,0.77824 c 0.295373,0.66805 0.699731,1.23696 1.029912,1.85415 0.671997,0.56958 0.479277,0.86828 1.482598,0.45941 0.08091,-0.033 0.131667,-0.0907 0.244946,-0.13694 l 1.514118,-0.50695 0.693499,-0.37414 c 0.307467,-0.1253 0.01164,-0.53652 -0.0708,-0.72295 -0.07553,-0.17089 0.05185,-0.31445 -0.0031,-0.43874 -0.06182,-0.13981 -0.207049,-0.20903 -0.261998,-0.33331 l -0.974619,-2.4629 -0.62787,-1.24798 c -0.274767,-0.62144 -0.40554,-0.91642 0.09612,-1.12086 0.0093,-0.0221 0.05103,-0.0573 0.115755,-0.0837 l 0.952394,-0.3514 c 0.469297,-0.19125 0.647584,0.34092 0.784966,0.65164 l 0.1788,0.27544 0.237712,0.71003 c 0.171731,0.3884 0.498213,0.6957 0.683678,1.11518 l 0.118341,0.48317 0.186036,0.29094 0.305925,0.99374 0.50901,0.89297 0.443902,1.04748 0.01447,0.50746 0.16278,0.28215 c 0.250198,0.39309 0.435684,0.8125 0.621151,1.23197 0.116777,0.26412 0.08336,0.53432 0.193271,0.7829 0.06182,0.13982 0.223644,0.20221 0.299204,0.3731 l 0.129709,0.42375 0.260448,0.41393 c 0.127767,-0.27144 0.442296,-0.45255 0.753443,-0.75448 0.473721,-0.13804 0.961787,-0.2453 1.414902,-0.42995 0.129458,-0.0528 0.231074,-0.16756 0.376719,-0.22686 l 2.102199,-0.77359 0.488858,-0.19069 1.886706,-0.9157 c 0.291264,-0.11865 0.650211,-0.24674 0.976686,-0.25374 0.326474,-0.007 0.62044,0.10724 0.781865,0.47233 0.281633,0.63698 1.256546,2.97137 1.196824,3.52743 -0.0681,0.32111 -0.68911,1.63775 -0.606679,1.82418 0.123642,0.27965 2.043628,0.56114 2.380215,1.3224 l 0.117822,0.48317 c 0.28163,0.63697 0.669943,1.21246 0.965316,1.88051 l 0.333314,1.05575 0.648539,1.29449 c 0.110953,0.25094 0.304358,0.71422 0.353984,1.10278 1.080493,-1.25832 2.049399,-2.66899 2.849438,-3.83801 -1.970199,0.73526 -2.096458,0.18002 -2.150256,-0.42633 -0.06024,-0.042 -0.09695,-0.0836 -0.09095,-0.12558 0.0071,-0.0531 0.06795,-0.0808 0.130741,-0.10697 l -0.0098,-0.2129 c -0.338008,0.0102 -0.590013,-0.0423 -0.502812,-0.33952 0.203206,-0.58388 0.51535,-1.21587 0.05064,-1.50171 -0.525608,-0.18601 -0.636604,-0.28887 -0.482659,-0.54261 0.338347,-1.47968 1.385017,-2.11673 2.501141,-2.11873 0.924787,-0.001 1.897552,0.43377 2.554367,1.18804 0.122388,0.14216 0.114654,0.2483 0.05013,0.339 l -0.01035,0.19378 0.824238,0.79479 c 0.660948,-0.17387 1.051203,-0.1241 1.281059,0.0589 v -12.84831 l -2.663404,-2.67374 -2.663404,-2.67374 H 59.698165 Z m 37.161556,18.19579 v 5.07928 0.59427 z m 0,5.67355 c -0.0047,0.0437 -0.0099,0.0864 -0.01447,0.13023 l -0.623218,6.18308 -0.804085,7.67499 c -0.141086,1.27903 -0.263054,2.66192 -0.532784,3.24631 -0.214251,0.12496 -0.631025,-0.10147 -0.9648,-0.18397 -0.430395,-0.11522 -0.689139,-0.13156 -0.99477,-0.17466 -1.487334,-0.26032 -1.807342,-0.75539 -2.030367,-1.26969 -0.743318,-0.17508 -1.406689,-0.40983 -1.909445,-0.76533 l -3.025138,4.83588 c -0.444746,0.82134 -0.870627,1.65548 -0.598413,2.9838 h 6.150528 l 2.673223,-2.66341 2.673739,-2.6634 z m -11.497489,22.66064 h -6.835759 6.835748 z m -6.835759,0 c 0.01167,-0.0738 0.118443,-0.14356 0.258381,-0.21239 0.305107,-0.0448 0.553119,-0.17262 0.954982,-0.0775 0.808268,-0.12448 1.737079,-0.55424 2.57297,-1.18236 0.437385,-0.32866 0.697865,-0.94611 0.994769,-1.56992 l 0.05013,-0.45527 c 0.488278,-1.09342 0.886233,-2.36542 1.26659,-3.66335 0.246438,-0.84095 0.37094,-1.71122 0.512111,-2.57762 l 0.291973,-0.65887 -0.09095,-0.25218 c 0.797605,-1.04388 2.105782,-3.82856 3.216341,-5.94021 l -3.849378,0.58136 c -1.158041,0.17493 -2.229739,0.3633 -3.206006,0.67851 l -0.20102,-0.0775 -0.204639,0.10128 0.01603,0.0915 c 0.141193,0.47966 0.206738,1.01596 -0.12764,1.43867 -0.722286,0.91305 -0.967211,1.79096 -1.364776,2.7001 0.269509,0.35343 0.08365,0.45548 -0.170532,0.52038 -0.135758,0.48282 -0.362911,0.7902 -0.611333,1.05575 -0.495099,0.4252 -0.892191,0.70225 -1.12241,0.72605 -0.27005,0.0389 -0.54024,0.0589 -0.810287,-0.0822 -0.114834,0.0848 -0.231942,0.1577 -0.383958,0.0274 -0.79235,-0.82359 -0.339783,-1.66646 -0.142108,-1.97353 -0.273772,-0.19847 -0.275656,-0.33114 0.05684,-0.38344 l -0.255799,-1.69963 c -0.103724,-0.33608 -0.459422,-0.22724 -0.682127,-0.16434 -1.325057,0.37402 -2.797143,0.93233 -4.183208,1.74253 0.541692,2.93968 1.083016,4.21775 1.624708,4.95887 0.169016,0.31573 0.405207,0.39297 0.397907,1.08262 0.581512,1.81461 1.215242,3.61812 2.560569,5.26532 z m -2.63188,0 H 59.41446 l 2.573499,-1e-5 z m -2.573488,0 c -0.01683,-0.18547 -0.119621,-0.4632 -0.186034,-0.70177 -0.414287,-0.18553 -0.519715,-0.48782 -0.610814,-1.16479 -1.361771,-2.72648 -2.85478,-5.40514 -4.066937,-7.29723 -2.182566,1.04025 -4.856102,1.84934 -7.576281,0.84078 0.301233,1.05075 0.808724,2.34973 1.260904,3.49798 0.582007,1.47791 1.193062,3.01763 2.020033,4.13773 l 0.482656,0.66869 c -0.03398,0.008 -0.06716,0.0122 -0.100767,0.0186 z m -8.77724,0 h -3.079399 z m -3.079399,0 c -0.06894,-0.0128 -0.137771,-0.0249 -0.206706,-0.0377 l -0.452169,-1.05626 c -0.509395,-0.0755 -0.403592,-0.55731 -0.432532,-0.94982 -0.525404,-1.19534 -1.186317,-2.35173 -1.979724,-3.46955 -0.963299,-0.28288 -0.716618,-1.25132 -1.005106,-2.0252 -0.252917,-0.67847 -1.345823,-2.0516 -2.047421,-2.56419 -0.679454,-0.49117 -1.229224,-1.00771 -1.719791,-1.5353 0.498084,2.73199 0.545485,6.95331 -0.707451,8.88524 l 0.07958,0.0796 2.663404,2.67323 z m -8.5509,-2.75281 -1.011824,-1.01595 z m -1.011824,-1.01595 c 0.334782,-1.60415 0.926679,-3.68626 0.852144,-5.03226 -0.253923,-2.10764 -0.537487,-3.66049 -0.86713,-4.34443 -1.116105,-4.82435 2.201199,-5.88461 4.918046,-5.31751 0.213443,-0.1245 0.21653,-0.41351 0.994771,-0.0956 0.779381,-0.88211 2.114088,-1.57984 4.235399,-1.54874 2.121313,0.031 4.121262,0.18643 5.58209,2.01486 0.231436,-0.0281 0.487981,-0.41815 0.685747,0.0408 l 0.568438,-0.35656 0.27027,0.23306 0.184483,-0.35605 0.241848,-0.0274 0.255796,0.37 v -0.45217 l 0.909505,-0.16484 0.454753,0.57567 0.540536,-0.67127 1.264523,-0.21963 0.170532,0.38396 0.170532,-0.35657 0.568957,-0.10956 0.326596,0.42478 0.312643,-0.53433 h 1.194242 l 0.09922,0.46612 0.454753,-0.56172 0.824238,0.0274 c -0.442841,-1.24201 -0.507947,-1.80806 -1.421101,-3.89227 -0.07148,-0.20596 0.11648,-0.25419 0.241845,-0.17829 l 0.752927,0.71262 c 0.06146,-0.10565 0.139137,-0.13285 0.227375,-0.10955 0.156017,0.046 0.293844,0.11005 0.370004,0.23306 0.66112,0.72572 1.390277,1.79619 2.202966,3.28921 l 0.426331,0.13694 c 0.191416,0.22108 0.382881,0.44187 0.426331,0.87695 0.01143,0.24235 0.06294,0.34874 0.12764,0.41134 0.296257,0.0349 0.588632,0.0709 0.09974,0.38344 l 0.198954,0.37 0.04237,0.23875 3.623035,-1.31878 c 1.37042,-0.49891 2.583656,-1.11108 4.258138,-2.435 -0.845997,0.37193 -1.88413,0.79786 -2.135269,0.90021 -0.250831,0.1022 -0.605288,0.31803 -0.907955,0.0408 0.04809,0.10875 -1.641626,1.01695 -1.706356,1.04335 -0.3722,0.15168 -0.826506,0.1168 -1.166337,0.25528 l -0.476975,0.30437 c -0.598754,0.244 -0.561638,0.1556 -0.984953,-0.24029 -0.126553,-0.11345 -0.30116,-0.20737 -0.376719,-0.37827 l -0.274402,-0.8785 -1.394749,-3.02514 -0.679026,-1.19011 -0.641821,-1.8836 c -0.185463,-0.41948 -0.532689,-0.77319 -0.725022,-1.2082 l -0.361217,-0.9896 -0.0083,-0.0155 c -0.129183,0.1551 -0.371483,0.2813 -0.74259,0.43253 -1.148964,0.46822 -1.34366,0.071 -1.927532,-1.24953 l -0.981335,-2.60708 -0.37362,-0.67282 -0.150898,-0.47026 c -0.109905,-0.24858 -0.678105,-0.10856 -0.872296,-0.0295 l -0.895035,0.4377 -0.727605,0.16847 c -0.113278,0.0462 -0.228973,0.13002 -0.33538,0.19172 -0.25205,0.12105 -0.541031,0.20196 -0.799952,0.30747 -0.550212,0.22422 -0.02437,0.98167 0.119891,1.30793 l 0.395324,1.1958 0.263549,0.42426 0.0832,0.66301 c 0.07556,0.17089 0.290489,0.13806 0.59273,0.82165 0.583875,1.32056 0.615551,1.43598 -0.727604,1.98335 -1.03569,0.42205 -1.100161,-0.28494 -1.594736,-1.40354 l -0.329695,-0.61753 c -0.06182,-0.13982 -0.05254,-0.29017 -0.107487,-0.41445 l -0.364318,-0.69504 c -0.199202,-0.45054 -0.222628,-0.93597 -0.414962,-1.37098 l -0.651123,-1.25625 c -0.07556,-0.1709 -0.132366,-0.38647 -0.173117,-0.60824 -0.381172,-0.55973 -0.688486,-1.16759 -0.963248,-1.78903 l -0.449069,-1.4056 c -0.05214,0.36874 -0.365048,0.61322 -0.853694,0.81235 l -1.428853,0.5271 -1.597319,0.7059 c -0.469294,0.19124 -0.98028,-0.18716 -1.239201,-0.0816 -0.372201,0.15168 -0.448287,0.71439 -0.885217,0.89245 -0.178009,0.0725 -0.369571,-0.0144 -0.515214,0.045 l -0.465088,0.37259 c -0.631122,0.25719 -1.185636,-0.30535 -1.412317,-0.81804 -0.130513,-0.29519 -0.126783,-0.5897 -0.227376,-0.86041 -0.100592,-0.27071 -0.333478,-0.45112 -0.443384,-0.6997 -0.336588,-0.76126 -0.67982,-1.53795 -0.928625,-2.31665 -0.08685,-0.23964 -0.04217,-0.44134 -0.145211,-0.67438 l -0.45682,-0.73019 c -0.185466,-0.41947 -0.299422,-0.84982 -0.468705,-1.27589 l -0.343648,-0.64854 -0.273885,-0.8785 -0.518315,-0.9989 -0.578776,-1.39579 c -0.02473,-0.0559 -0.04066,-0.0868 -0.0646,-0.13952 l -1.54926,1.54357 v 17.92759 17.92811 z m -0.02274,-38.97747 1.124479,-1.11983 0.590662,-0.58859 -1.715153,1.70842 z m 1.715141,-1.70842 c 0.04322,0.10404 0.07779,0.18456 0.134876,0.31367 0.103037,0.23304 0.302988,0.42633 0.412894,0.6749 l 2.146123,5.28598 0.637687,1.09709 0.46147,1.38854 0.336931,0.63304 c 0.439621,0.9943 0.374729,1.02059 1.39423,0.60513 l 1.201993,-0.4346 c 0.30747,-0.1253 0.642432,-0.18876 0.922425,-0.3762 0.592351,-0.38808 0.833667,-0.10116 0.593245,-0.64492 l -0.222726,-0.33125 -0.507462,-1.27796 -0.72502,-1.33635 -0.199988,-0.79892 -0.431498,-0.75912 -2.034501,-4.81831 c -0.307477,-0.69543 -0.473196,-1.04452 -0.430465,-1.29605 H 41.77006 Z m 11.131103,9.87123 c 0.02556,-0.18079 -0.01072,-0.39086 -0.121439,-0.64131 l -0.815972,-1.62935 -0.496094,-1.33791 -0.193267,-0.40359 c -0.0389,0.19029 0.112334,0.42904 0.252695,0.86196 0.0064,0.14407 0.03792,0.25912 0.09974,0.39894 0.04808,0.10876 0.154336,0.17544 0.209288,0.29973 l 0.120406,0.44596 c 0.212942,0.48163 0.435108,1.06987 0.696598,1.5317 0.06427,0.10215 0.144518,0.19765 0.199472,0.32194 z m 12.12691,6.65592 c 0.169373,-0.20335 0.143642,-0.45595 -0.04341,-0.87901 l -0.534334,-0.86403 -0.279569,-0.54622 -0.175699,-0.69867 -0.125058,-0.19895 c -0.006,0.0128 -0.01397,0.0246 -0.01913,0.0377 -0.06881,0.17619 -0.05902,0.39247 0.07751,0.70125 l 0.357085,0.67903 0.321942,0.98754 z m 11.839069,7.26519 c 0,0 1.173572,-1.03402 1.173577,-1.03404 0,0 -1.173573,1.03402 -1.173577,1.03404 z m -5.971728,-11.22929 c -0.113633,-0.003 -0.25918,0.0532 -0.480592,0.11938 l -0.510045,0.0977 -0.45992,0.22428 c -0.649491,0.3164 -0.449244,0.23359 -0.75706,0.36483 l -0.864547,0.30386 c -0.43693,0.17807 -0.583261,-0.13687 -0.569992,0.0227 0.04028,0.35029 -0.162676,0.32328 -0.246496,0.52245 -0.158322,0.37622 0.351165,1.26848 0.435115,1.67431 0.03877,0.13089 0.006,0.27259 0.06098,0.39688 l 0.559658,0.96377 c 0.08243,0.18643 0.432697,0.97911 0.723987,0.86041 0.566385,-0.23081 1.02367,-1.57253 1.309478,-2.09238 0.223063,-0.4026 0.535956,-0.73202 0.805119,-1.11673 0.199552,-0.283 0.323321,-0.60803 0.463021,-0.93999 0.160317,-0.28535 0.03698,-0.69391 -0.09353,-0.98909 -0.135255,-0.30591 -0.229073,-0.40838 -0.375171,-0.41238 z m 1.400432,5.07825 c -0.148315,-0.002 -0.304342,0.0273 -0.468188,0.0941 -0.134819,0.25662 -0.349652,0.41809 -0.537435,0.6413 l -0.515731,0.90692 -0.259416,0.2341 c -0.0858,0.10831 -0.07382,0.52466 -0.20619,0.74362 -0.155345,0.26958 -0.372621,0.49991 -0.456819,0.76378 -0.05052,0.15831 -0.05297,0.3285 0.03462,0.52658 0.37093,0.83894 0.662337,1.94607 1.745113,1.71928 0.573838,-0.002 1.42e-4,5e-5 1.132231,-0.19947 0.763778,-0.36242 0.861425,-0.62237 1.427819,-0.85318 0.178009,-0.0726 0.311697,-0.0725 0.457337,-0.13178 0.517848,-0.21103 0.08674,-0.97034 -0.05064,-1.28106 l -0.259932,-0.84749 c -0.342595,-0.77485 -1.004562,-2.30426 -2.042768,-2.31665 z M 46.47675,268.2959 c 0.766982,1.62821 1.360565,3.42352 2.391585,4.79712 -0.02524,-0.24399 -0.166116,-0.60008 -0.351401,-0.99839 -0.184499,-0.26919 -0.360746,-0.50074 -0.532783,-0.98805 -0.363002,-1.02822 -0.949994,-1.91173 -1.507401,-2.81068 z"
         id="path5428" />
    </g>
  </g>
</svg>
