<?xml version="1.0" encoding="UTF-8" standalone="no"?>
<svg
   xmlns:dc="http://purl.org/dc/elements/1.1/"
   xmlns:cc="http://creativecommons.org/ns#"
   xmlns:rdf="http://www.w3.org/1999/02/22-rdf-syntax-ns#"
   xmlns:svg="http://www.w3.org/2000/svg"
   xmlns="http://www.w3.org/2000/svg"
   xmlns:sodipodi="http://sodipodi.sourceforge.net/DTD/sodipodi-0.dtd"
   xmlns:inkscape="http://www.inkscape.org/namespaces/inkscape"
   id="svg7227"
   version="1.1"
   viewBox="0 0 110.41832 200.782"
   height="200.782mm"
   width="110.41832mm"
   sodipodi:docname="box2.svg"
   inkscape:version="0.92.3 (2405546, 2018-03-11)">
  <sodipodi:namedview
     pagecolor="#ffffff"
     bordercolor="#666666"
     borderopacity="1"
     objecttolerance="10"
     gridtolerance="10"
     guidetolerance="10"
     inkscape:pageopacity="0"
     inkscape:pageshadow="2"
     inkscape:window-width="1920"
     inkscape:window-height="1052"
     id="namedview8468"
     showgrid="true"
     inkscape:zoom="1.4142136"
     inkscape:cx="220.62302"
     inkscape:cy="519.48607"
     inkscape:window-x="0"
     inkscape:window-y="0"
     inkscape:window-maximized="1"
     inkscape:current-layer="svg7227"
     showguides="true"
     inkscape:measure-start="36.2392,72.6552"
     inkscape:measure-end="-0.176777,72.6552" />
  <defs
     id="defs7221" />
  <metadata
     id="metadata7224">
    <rdf:RDF>
      <cc:Work
         rdf:about="">
        <dc:format>image/svg+xml</dc:format>
        <dc:type
           rdf:resource="http://purl.org/dc/dcmitype/StillImage" />
        <dc:title />
      </cc:Work>
    </rdf:RDF>
  </metadata>
  <path
     style="font-size:12px;vector-effect:non-scaling-stroke;fill:none;fill-rule:evenodd;stroke:#ff0000;stroke-width:0.1;stroke-linecap:round"
     id="top_outsideCutPath"
     d="m 46.25,200.673 v -2.941 h 17.8 v 2.941 l 0.059,0.059 h 18.082 l 0.059,-0.059 v -2.941 h 24.941 l 0.059,-0.059 v -12.941 h 2.941 l 0.059,-0.059 v -18.082 l -0.059,-0.059 h -2.941 v -12.941 l -0.059,-0.059 H 82.25 v -2.941 l -0.059,-0.059 H 64.109 l -0.059,0.059 v 2.941 h -17.8 v -2.941 l -0.059,-0.059 H 28.109 l -0.059,0.059 v 2.941 H 3.109 l -0.059,0.059 v 12.941 H 0.109 l -0.059,0.059 v 18.082 l 0.059,0.059 H 3.05 v 12.941 l 0.059,0.059 H 28.05 v 2.941 l 0.059,0.059 h 18.082 z"
     inkscape:connector-curvature="0" />
  <path
     style="font-size:12px;vector-effect:non-scaling-stroke;fill:none;fill-rule:evenodd;stroke:#ff0000;stroke-width:0.1;stroke-linecap:round"
     id="bottom_outsideCutPath"
     d="m 46.30933,150.532 v -2.941 h 17.8 v 2.941 l 0.059,0.059 h 18.082 l 0.059,-0.059 v -2.941 h 24.941 l 0.059,-0.059 v -12.941 h 2.941 l 0.059,-0.059 V 116.45 l -0.059,-0.059 h -2.941 V 103.45 l -0.059,-0.059 h -24.941 v -2.941 l -0.059,-0.059 h -18.082 l -0.059,0.059 v 2.941 h -17.8 v -2.941 l -0.059,-0.059 h -18.082 l -0.059,0.059 v 2.941 h -24.941 l -0.059,0.059 v 12.941 h -2.941 l -0.059,0.059 v 18.082 l 0.059,0.059 h 2.941 v 12.941 l 0.059,0.059 h 24.941 v 2.941 l 0.059,0.059 h 18.082 z"
     inkscape:connector-curvature="0" />
  <path
     inkscape:connector-curvature="0"
     style="font-size:12px;vector-effect:non-scaling-stroke;fill:none;fill-rule:evenodd;stroke:#ff0000;stroke-width:0.1;stroke-linecap:round"
     id="left_outsideCutPath"
     d="m 0.10901,66.45 h 2.941 v 17.8 h -2.941 l -0.059,0.059 v 13.082 l 0.059,0.059 h 27.941 v 2.941 l 0.059,0.059 h 18.082 l 0.059,-0.059 V 97.45 h 17.8 v 2.941 l 0.059,0.059 h 18.082 l 0.059,-0.059 V 97.45 h 27.941 l 0.059,-0.059 V 84.309 l -0.059,-0.059 h -2.941 v -17.8 h 2.941 l 0.059,-0.059 V 53.309 l -0.059,-0.059 -27.941,0 v -2.941 l -0.059,-0.059 h -18.082 l -0.059,0.059 v 2.941 h -17.8 v -2.941 l -0.059,-0.059 h -18.082 l -0.059,0.059 v 2.941 h -27.941 l -0.059,0.059 v 13.082 z" />
  <path
     inkscape:connector-curvature="0"
     style="font-size:12px;vector-effect:non-scaling-stroke;fill:none;fill-rule:evenodd;stroke:#ff0000;stroke-width:0.1;stroke-linecap:round"
     id="right_outsideCutPath"
     d="m 0.22732,16.25 h 2.941 v 17.8 h -2.941 l -0.059,0.059 v 13.082 l 0.059,0.059 h 27.941 v 2.941 l 0.059,0.059 h 18.082 l 0.059,-0.059 V 47.25 h 17.8 v 2.941 l 0.059,0.059 h 18.082 l 0.059,-0.059 V 47.25 h 27.941 l 0.059,-0.059 V 34.109 l -0.059,-0.059 h -2.941 v -17.8 h 2.941 l 0.059,-0.059 V 3.109 l -0.059,-0.059 h -27.941 V 0.109 l -0.059,-0.059 h -18.082 l -0.059,0.059 V 3.05 h -17.8 l 0,-2.941 -0.059,-0.059 h -18.082 l -0.059,0.059 0,2.941 h -27.941 l -0.059,0.059 v 13.082 z" />
  <rect
     style="opacity:1;fill:none;fill-opacity:1;fill-rule:evenodd;stroke:#ff0000;stroke-width:0.24268977;stroke-linecap:round;stroke-linejoin:round;stroke-miterlimit:4;stroke-dasharray:none;stroke-opacity:1"
     id="rect827"
     width="8.7573109"
     height="8.7573109"
     x="12.860798"
     y="180.73056" />
  <rect
     style="opacity:1;fill:none;fill-opacity:1;fill-rule:evenodd;stroke:#ff0000;stroke-width:0.24268977;stroke-linecap:round;stroke-linejoin:round;stroke-miterlimit:4;stroke-dasharray:none;stroke-opacity:1"
     id="rect827-3"
     width="8.7573109"
     height="8.7573109"
     x="98.345825"
     y="69.469421" />
</svg>
